<svg xmlns="http://www.w3.org/2000/svg" viewBox="0 0 760 340" width="760" height="340" role="img"><title>Causal masking</title><rect width="760" height="340" fill="#F7F4EE" rx="14"/><text x="380" y="40" font-family="'Inter','Avenir Next','Segoe UI',Verdana,sans-serif" font-size="20" fill="#2B2B2B" text-anchor="middle" font-weight="bold">Mask the future: minus infinity, softmax to zero</text><rect x="180" y="90" width="70" height="70" fill="#FFFFFF" stroke="#2B2B2B" stroke-width="1.5"/><rect x="250" y="90" width="70" height="70" fill="#E4E0D4" stroke="#2B2B2B" stroke-width="1.5"/><text x="285.0" y="131.0" font-family="'Inter','Avenir Next','Segoe UI',Verdana,sans-serif" font-size="13" fill="#D96830" text-anchor="middle" font-weight="bold">-inf</text><rect x="320" y="90" width="70" height="70" fill="#E4E0D4" stroke="#2B2B2B" stroke-width="1.5"/><text x="355.0" y="131.0" font-family="'Inter','Avenir Next','Segoe UI',Verdana,sans-serif" font-size="13" fill="#D96830" text-anchor="middle" font-weight="bold">-inf</text><rect x="390" y="90" width="70" height="70" fill="#E4E0D4" stroke="#2B2B2B" stroke-width="1.5"/><text x="425.0" y="131.0" font-family="'Inter','Avenir Next','Segoe UI',Verdana,sans-serif" font-size="13" fill="#D96830" text-anchor="middle" font-weight="bold">-inf</text><rect x="460" y="90" width="70" height="70" fill="#E4E0D4" stroke="#2B2B2B" stroke-width="1.5"/><text x="495.0" y="131.0" font-family="'Inter','Avenir Next','Segoe UI',Verdana,sans-serif" font-size="13" fill="#D96830" text-anchor="middle" font-weight="bold">-inf</text><rect x="180" y="160" width="70" height="70" fill="#FFFFFF" stroke="#2B2B2B" stroke-width="1.5"/><rect x="250" y="160" width="70" height="70" fill="#FFFFFF" stroke="#2B2B2B" stroke-width="1.5"/><rect x="320" y="160" width="70" height="70" fill="#E4E0D4" stroke="#2B2B2B" stroke-width="1.5"/><text x="355.0" y="201.0" font-family="'Inter','Avenir Next','Segoe UI',Verdana,sans-serif" font-size="13" fill="#D96830" text-anchor="middle" font-weight="bold">-inf</text><rect x="390" y="160" width="70" height="70" fill="#E4E0D4" stroke="#2B2B2B" stroke-width="1.5"/><text x="425.0" y="201.0" font-family="'Inter','Avenir Next','Segoe UI',Verdana,sans-serif" font-size="13" fill="#D96830" text-anchor="middle" font-weight="bold">-inf</text><rect x="460" y="160" width="70" height="70" fill="#E4E0D4" stroke="#2B2B2B" stroke-width="1.5"/><text x="495.0" y="201.0" font-family="'Inter','Avenir Next','Segoe UI',Verdana,sans-serif" font-size="13" fill="#D96830" text-anchor="middle" font-weight="bold">-inf</text><rect x="180" y="230" width="70" height="70" fill="#FFFFFF" stroke="#2B2B2B" stroke-width="1.5"/><rect x="250" y="230" width="70" height="70" fill="#FFFFFF" stroke="#2B2B2B" stroke-width="1.5"/><rect x="320" y="230" width="70" height="70" fill="#FFFFFF" stroke="#2B2B2B" stroke-width="1.5"/><rect x="390" y="230" width="70" height="70" fill="#E4E0D4" stroke="#2B2B2B" stroke-width="1.5"/><text x="425.0" y="271.0" font-family="'Inter','Avenir Next','Segoe UI',Verdana,sans-serif" font-size="13" fill="#D96830" text-anchor="middle" font-weight="bold">-inf</text><rect x="460" y="230" width="70" height="70" fill="#E4E0D4" stroke="#2B2B2B" stroke-width="1.5"/><text x="495.0" y="271.0" font-family="'Inter','Avenir Next','Segoe UI',Verdana,sans-serif" font-size="13" fill="#D96830" text-anchor="middle" font-weight="bold">-inf</text><rect x="180" y="300" width="70" height="70" fill="#FFFFFF" stroke="#2B2B2B" stroke-width="1.5"/><rect x="250" y="300" width="70" height="70" fill="#FFFFFF" stroke="#2B2B2B" stroke-width="1.5"/><rect x="320" y="300" width="70" height="70" fill="#FFFFFF" stroke="#2B2B2B" stroke-width="1.5"/><rect x="390" y="300" width="70" height="70" fill="#FFFFFF" stroke="#2B2B2B" stroke-width="1.5"/><rect x="460" y="300" width="70" height="70" fill="#E4E0D4" stroke="#2B2B2B" stroke-width="1.5"/><text x="495.0" y="341.0" font-family="'Inter','Avenir Next','Segoe UI',Verdana,sans-serif" font-size="13" fill="#D96830" text-anchor="middle" font-weight="bold">-inf</text><rect x="180" y="370" width="70" height="70" fill="#FFFFFF" stroke="#2B2B2B" stroke-width="1.5"/><rect x="250" y="370" width="70" height="70" fill="#FFFFFF" stroke="#2B2B2B" stroke-width="1.5"/><rect x="320" y="370" width="70" height="70" fill="#FFFFFF" stroke="#2B2B2B" stroke-width="1.5"/><rect x="390" y="370" width="70" height="70" fill="#FFFFFF" stroke="#2B2B2B" stroke-width="1.5"/><rect x="460" y="370" width="70" height="70" fill="#FFFFFF" stroke="#2B2B2B" stroke-width="1.5"/><text x="60" y="470" font-family="'Inter','Avenir Next','Segoe UI',Verdana,sans-serif" font-size="15" fill="#2B2B2B" text-anchor="start" font-weight="normal">Decoder masks: cannot reveal the answer in training.</text><text x="60" y="496" font-family="'Inter','Avenir Next','Segoe UI',Verdana,sans-serif" font-size="15" fill="#2B2B2B" text-anchor="start" font-weight="normal">Encoder does not mask: it sees the whole sentence.</text></svg>