<svg xmlns="http://www.w3.org/2000/svg" viewBox="0 0 760 320" width="760" height="320" role="img"><title>Bridge to CS336 for training systems depth</title><rect width="760" height="320" fill="#F7F4EE" rx="14"/><text x="380" y="40" font-family="'Inter','Avenir Next','Segoe UI',Verdana,sans-serif" font-size="20" fill="#2B2B2B" text-anchor="middle" font-weight="bold">CS224N framing here; deep mechanics in CS336</text><rect x="40" y="90" width="220" height="110" fill="#FFFFFF" stroke="#1F7A6D" stroke-width="2" rx="10"/><text x="150" y="122" font-family="'Inter','Avenir Next','Segoe UI',Verdana,sans-serif" font-size="14" fill="#1F7A6D" text-anchor="middle" font-weight="bold">This lesson</text><text x="150" y="150" font-family="'Inter','Avenir Next','Segoe UI',Verdana,sans-serif" font-size="12" fill="#5A5A52" text-anchor="middle" font-weight="normal">precision to LoRA</text><line x1="260" y1="145" x2="300" y2="145" stroke="#5A5A52" stroke-width="2"/><polygon points="300,145 291,141 291,149" fill="#5A5A52"/><rect x="280" y="90" width="220" height="110" fill="#FFFFFF" stroke="#D96830" stroke-width="2" rx="10"/><text x="390" y="122" font-family="'Inter','Avenir Next','Segoe UI',Verdana,sans-serif" font-size="14" fill="#D96830" text-anchor="middle" font-weight="bold">CS336 L02</text><text x="390" y="150" font-family="'Inter','Avenir Next','Segoe UI',Verdana,sans-serif" font-size="12" fill="#5A5A52" text-anchor="middle" font-weight="normal">resource accounting</text><line x1="500" y1="145" x2="540" y2="145" stroke="#5A5A52" stroke-width="2"/><polygon points="540,145 531,141 531,149" fill="#5A5A52"/><rect x="520" y="90" width="220" height="110" fill="#FFFFFF" stroke="#2E6BE6" stroke-width="2" rx="10"/><text x="630" y="122" font-family="'Inter','Avenir Next','Segoe UI',Verdana,sans-serif" font-size="14" fill="#2E6BE6" text-anchor="middle" font-weight="bold">CS336 L05/L07/L08</text><text x="630" y="150" font-family="'Inter','Avenir Next','Segoe UI',Verdana,sans-serif" font-size="12" fill="#5A5A52" text-anchor="middle" font-weight="normal">GPUs, parallelism</text><line x1="740" y1="145" x2="780" y2="145" stroke="#5A5A52" stroke-width="2"/><polygon points="780,145 771,141 771,149" fill="#5A5A52"/><text x="40" y="250" font-family="'Inter','Avenir Next','Segoe UI',Verdana,sans-serif" font-size="15" fill="#2B2B2B" text-anchor="start" font-weight="normal">CS336: MFU, roofline, Triton kernels, 4D parallelism.</text></svg>